<svg xmlns="http://www.w3.org/2000/svg" xmlns:xlink="http://www.w3.org/1999/xlink" xmlns:inkscape="http://www.inkscape.org/namespaces/inkscape" version="1.1" width="185" height="154" viewBox="0 0 185 154">
<defs>
<path id="font_1_1" d="M.6589966 .23046875C.6759949 .23046875 .69400027 .23046875 .69400027 .25045777 .69400027 .27046205 .6759949 .27046205 .6589966 .27046205H.117996219C.100997928 .27046205 .08299255 .27046205 .08299255 .25045777 .08299255 .23046875 .100997928 .23046875 .117996219 .23046875H.6589966Z"/>
<path id="font_2_3" d="M.2899933 .35191346C.37199403 .37893678 .42999269 .4490509 .42999269 .52809146 .42999269 .6100464 .34199525 .6660156 .24598694 .6660156 .14498902 .6660156 .068984989 .60606387 .068984989 .53009036 .068984989 .49710084 .09098816 .47808839 .11999512 .47808839 .15098572 .47808839 .17098999 .50009158 .17098999 .5290985 .17098999 .57910159 .12399292 .57910159 .10899353 .57910159 .13999939 .62802127 .20599365 .64100649 .24198914 .64100649 .2829895 .64100649 .33799745 .6190338 .33799745 .5290985 .33799745 .51708987 .33599855 .45906068 .30999757 .4149933 .27999879 .36691285 .24598694 .36390687 .22099304 .36291505 .21299744 .36190797 .18899536 .35990907 .18199158 .35990907 .17399597 .35890199 .16699219 .35791017 .16699219 .3479004 .16699219 .33691407 .17399597 .33691407 .19099427 .33691407H.23498535C.31698609 .33691407 .35398866 .2686615 .35398866 .17037964 .35398866 .034469606 .2849884 .0055389406 .24099732 .0055389406 .19799805 .0055389406 .12298584 .022491456 .08799744 .08137512 .12298584 .07637024 .1539917 .09837341 .1539917 .1363678 .1539917 .17237854 .1269989 .19238281 .09799194 .19238281 .07398987 .19238281 .041992189 .17837525 .041992189 .1343689 .041992189 .043441774 .1349945-.022460938 .24398804-.022460938 .3659973-.022460938 .45700074 .06838989 .45700074 .17037964 .45700074 .252594 .3939972 .33088685 .2899933 .35191346Z"/>
<path id="font_2_2" d="M.1269989 .07699585 .23298645 .18003845C.3889923 .31811524 .44898988 .3721466 .44898988 .47216798 .44898988 .5860901 .35899354 .6660156 .23699951 .6660156 .12399292 .6660156 .049987794 .57411196 .049987794 .48516847 .049987794 .4291687 .099990848 .4291687 .102996829 .4291687 .11999512 .4291687 .15499878 .44117738 .15499878 .48217774 .15499878 .5081787 .13699341 .5341797 .101989749 .5341797 .09399414 .5341797 .09199524 .5341797 .08898926 .5331726 .11199951 .59806826 .1659851 .63500979 .22399903 .63500979 .31498719 .63500979 .35798646 .5541382 .35798646 .47216798 .35798646 .39215089 .30799867 .31311036 .25299073 .25108338L.06098938 .036987306C.049987794 .025985718 .049987794 .023986817 .049987794 0H.42099L.44898988 .17404175H.42399598C.4189911 .14402771 .4119873 .1000061 .4019928 .084991458 .394989 .07699585 .32899476 .07699585 .30699159 .07699585H.1269989Z"/>
<path id="font_2_1" d="M.2939911 .64004519C.2939911 .66400149 .2939911 .6660156 .2709961 .6660156 .20899964 .60227969 .12098694 .60227969 .08898926 .60227969V.57128909C.10899353 .57128909 .16799927 .57128909 .21998596 .5972748V.07902527C.21998596 .042999269 .21699524 .0309906 .1269989 .0309906H.09498596V0C.12998963 .0029907227 .21699524 .0029907227 .25698854 .0029907227 .29699708 .0029907227 .38398744 .0029907227 .4189911 0V.0309906H.3869934C.29699708 .0309906 .2939911 .041992189 .2939911 .07902527V.64004519Z"/>
<path id="font_2_6" d="M.13198853 .327713V.35173036C.13198853 .6047821 .2559967 .64100649 .30699159 .64100649 .33099366 .64100649 .37298585 .634964 .394989 .6007538 .37998963 .6007538 .33999635 .6007538 .33999635 .5557556 .33999635 .524765 .3639984 .5097656 .38598634 .5097656 .4019928 .5097656 .43199159 .51875308 .43199159 .5577545 .43199159 .6178589 .3880005 .6660156 .30499269 .6660156 .1769867 .6660156 .041992189 .5367584 .041992189 .31570436 .041992189 .048553468 .1579895-.022460938 .25099183-.022460938 .3619995-.022460938 .45700074 .07156372 .45700074 .2036438 .45700074 .33070375 .36799623 .4267578 .25698854 .4267578 .18899536 .4267578 .1519928 .37573243 .13198853 .327713M.25099183 .0055389406C.18798828 .0055389406 .1579895 .06556702 .1519928 .080566409 .13398743 .127594 .13398743 .2076416 .13398743 .22564698 .13398743 .30369569 .1659851 .40374757 .2559967 .40374757 .27198792 .40374757 .31799317 .40374757 .34899903 .34172059 .36698915 .30470277 .36698915 .2536621 .36698915 .20463562 .36698915 .15661621 .36698915 .10658264 .34999085 .0705719 .31999208 .010528564 .27398683 .0055389406 .25099183 .0055389406Z"/>
<path id="font_2_5" d="M.44898988 .20022583C.44898988 .3193512 .36698915 .41944886 .25898744 .41944886 .21099854 .41944886 .16799927 .40345765 .13198853 .36842347V.5637665C.1519928 .5577698 .18499756 .55078127 .21699524 .55078127 .33999635 .55078127 .4099884 .6417694 .4099884 .6547699 .4099884 .6607666 .40699769 .6657715 .3999939 .6657715 .39898683 .6657715 .39698792 .6657715 .3919983 .66278079 .37199403 .6537781 .32299806 .6337738 .2559967 .6337738 .21598816 .6337738 .16999817 .6407776 .12298584 .6617737 .114990238 .66477969 .11299133 .66477969 .11099243 .66477969 .100997928 .66477969 .100997928 .6567688 .100997928 .6407776V.34439088C.100997928 .32637025 .100997928 .31835938 .114990238 .31835938 .12199402 .31835938 .12399292 .32136537 .12799073 .32736207 .13899231 .3433838 .17599488 .39746095 .25698854 .39746095 .30899049 .39746095 .33399964 .35139466 .34199525 .33337403 .35798646 .29632569 .3600006 .25727845 .3600006 .20722962 .3600006 .17222595 .3600006 .11222839 .33599855 .07035828 .31199647 .031463624 .2749939 .0055389406 .22898865 .0055389406 .1559906 .0055389406 .09899902 .058380128 .08198547 .11723328 .084991458 .1162262 .08799744 .115234378 .09899902 .115234378 .13198853 .115234378 .14898682 .14022827 .14898682 .16423035 .14898682 .18823242 .13198853 .21322632 .09899902 .21322632 .084991458 .21322632 .049987794 .20622254 .049987794 .16023255 .049987794 .07434082 .11898804-.022460938 .23098755-.022460938 .34700013-.022460938 .44898988 .073349 .44898988 .20022583Z"/>
<path id="font_2_4" d="M.2939911 .16503906V.07800293C.2939911 .041992189 .2919922 .0309906 .21798706 .0309906H.19699097V0C.23799134 .0029907227 .2899933 .0029907227 .33198548 .0029907227 .37399293 .0029907227 .4269867 .0029907227 .46798707 0V.0309906H.44699098C.37298585 .0309906 .37098695 .041992189 .37098695 .07800293V.16503906H.47099305V.19602967H.37098695V.65075686C.37098695 .67074587 .37098695 .6767578 .35499574 .6767578 .34599305 .6767578 .34298707 .6767578 .33499146 .66474917L.027999878 .19602967V.16503906H.2939911M.2999878 .19602967H.055999757L.2999878 .5688019V.19602967Z"/>
<clipPath id="clip_3">
<path transform="matrix(.900018,0,0,-.900018,-80.309009,198.11023)" d="M97.13484 53.7979H291.4045V215.19158H97.13484Z"/>
</clipPath>
<path id="font_4_2" d="M.48599244 .38136292C.48999024 .39537049 .48999024 .39736939 .48999024 .40437318 .48999024 .42237855 .47599793 .43138124 .46099855 .43138124 .45098878 .43138124 .43499757 .42536927 .42599488 .41036988 .42399598 .405365 .41600038 .37435914 .4119873 .35635377 .40499879 .33035279 .397995 .30334474 .3919983 .27633668L.34700013 .09628296C.34298707 .08126831 .2999878 .011245728 .23399353 .011245728 .18299866 .011245728 .17199707 .055267335 .17199707 .0922699 .17199707 .1382904 .18899536 .20030213 .22299195 .28833009 .23899842 .3293457 .24299622 .3403473 .24299622 .36035157 .24299622 .405365 .21099854 .4423828 .16099549 .4423828 .06599426 .4423828 .0289917 .29733277 .0289917 .28833009 .0289917 .27833558 .038986207 .27833558 .040985109 .27833558 .050994874 .27833558 .051986696 .28033448 .056991579 .29634095 .083999637 .3903656 .12399292 .42037965 .1579895 .42037965 .1659851 .42037965 .18299866 .42037965 .18299866 .3883667 .18299866 .36335755 .17298889 .3373413 .1659851 .31834413 .12599182 .21231079 .10798645 .1552887 .10798645 .10827637 .10798645 .019256592 .17098999-.0107421879 .22999573-.0107421879 .2689972-.0107421879 .30299378 .0062561037 .33099366 .03425598 .31799317-.017745972 .30599977-.06674194 .2659912-.11973572 .23999024-.15385437 .20199585-.18309021 .1559906-.18309021 .14199829-.18309021 .09700012-.18005371 .07998657-.14074707 .09599304-.14074707 .10899353-.14074707 .12298584-.1287384 .1329956-.11973572 .14299011-.10673523 .14299011-.08773804 .14299011-.056747438 .115997318-.052734376 .10598755-.052734376 .08299255-.052734376 .049987794-.068740848 .049987794-.11773682 .049987794-.16796875 .09399414-.20507813 .1559906-.20507813 .25898744-.20507813 .3619995-.11373901 .3899994-.00074768069L.48599244 .38136292Z"/>
<path id="font_2_7" d="M.68699648 .32714845C.70199587 .32714845 .72099307 .32714845 .72099307 .34713746 .72099307 .36714173 .70199587 .36714173 .6879883 .36714173H.08898926C.07499695 .36714173 .055999757 .36714173 .055999757 .34713746 .055999757 .32714845 .07499695 .32714845 .08999634 .32714845H.68699648M.6879883 .13284302C.70199587 .13284302 .72099307 .13284302 .72099307 .15284729 .72099307 .17285156 .70199587 .17285156 .68699648 .17285156H.08999634C.07499695 .17285156 .055999757 .17285156 .055999757 .15284729 .055999757 .13284302 .07499695 .13284302 .08898926 .13284302H.6879883Z"/>
<path id="font_4_1" d="M.33399964 .30233766C.33999635 .32835389 .36299134 .42037965 .43299867 .42037965 .43798829 .42037965 .46199037 .42037965 .48298646 .40734864 .45498658 .402359 .43499757 .37734986 .43499757 .35334779 .43499757 .33735658 .44599916 .31835938 .47299195 .31835938 .49499513 .31835938 .5269928 .3363495 .5269928 .37635804 .5269928 .42837525 .46798707 .4423828 .43399049 .4423828 .37599183 .4423828 .34098817 .38935853 .32899476 .36634828 .3039856 .43237306 .25 .4423828 .22099304 .4423828 .116989139 .4423828 .05999756 .3133545 .05999756 .28834535 .05999756 .27833558 .069992069 .27833558 .07199097 .27833558 .07998657 .27833558 .08299255 .28033448 .084991458 .28933717 .11898804 .39535523 .18499756 .42037965 .21899414 .42037965 .23799134 .42037965 .272995 .4113617 .272995 .35334779 .272995 .32235719 .2559967 .25532533 .21899414 .11528015 .20298767 .053268434 .16799927 .011245728 .12399292 .011245728 .117996219 .011245728 .09498596 .011245728 .07398987 .024276734 .09899902 .029266358 .12098694 .05027771 .12098694 .07827759 .12098694 .105270389 .09899902 .11328125 .083999637 .11328125 .053985597 .11328125 .0289917 .08728027 .0289917 .055267335 .0289917 .009246826 .07899475-.0107421879 .12298584-.0107421879 .18899536-.0107421879 .22499085 .059280397 .22799683 .0652771 .23999024 .028274537 .27598573-.0107421879 .33599855-.0107421879 .43899537-.0107421879 .49598695 .118270877 .49598695 .14328003 .49598695 .1532898 .4869995 .1532898 .48399354 .1532898 .47499085 .1532898 .47299195 .14929199 .47099305 .14228821 .43798829 .03527832 .36999513 .011245728 .33799745 .011245728 .29899598 .011245728 .2829895 .043273927 .2829895 .07727051 .2829895 .09927368 .2889862 .121276859 .2999878 .16529846L.33399964 .30233766Z"/>
<path id="font_5_1" d="M.69898989 .22743225C.71499636 .22743225 .7369995 .22743225 .7369995 .25042726 .7369995 .2734375 .71499636 .2734375 .69898989 .2734375H.12599182C.10998535 .2734375 .08799744 .2734375 .08799744 .25042726 .08799744 .22743225 .10998535 .22743225 .12599182 .22743225H.69898989Z"/>
<path id="font_6_1" d="M.31399537 .63708499C.31399537 .664032 .31199647 .66503909 .2849884 .66503909 .24398804 .6251831 .19099427 .6013489 .09599304 .6013489V.5683594C.12298584 .5683594 .1769867 .5683594 .23498535 .5953522V.08203125C.23498535 .04499817 .23199463 .032989503 .13699341 .032989503H.101989749V0C.14299011 .0029907227 .22898865 .0029907227 .27398683 .0029907227 .31900025 .0029907227 .4059906 .0029907227 .44699098 0V.032989503H.4119873C.31698609 .032989503 .31399537 .04499817 .31399537 .08203125V.63708499Z"/>
</defs>
<path transform="matrix(.900018,0,0,-.900018,-80.309009,198.11023)" stroke-width=".39851" stroke-linecap="butt" stroke-miterlimit="10" stroke-linejoin="miter" fill="none" stroke="#bfbfbf" d="M97.13484 53.7979V215.19158M129.5131 53.7979V215.19158M161.89139 53.7979V215.19158M226.64795 53.7979V215.19158M259.0262 53.7979V215.19158M291.4045 53.7979V215.19158"/>
<path transform="matrix(.900018,0,0,-.900018,-80.309009,198.11023)" stroke-width=".39851" stroke-linecap="butt" stroke-miterlimit="10" stroke-linejoin="miter" fill="none" stroke="#bfbfbf" d="M97.13484 53.7979H291.4045M97.13484 67.24738H291.4045M97.13484 80.69684H291.4045M97.13484 94.14632H291.4045M97.13484 107.5958H291.4045M97.13484 121.04526H291.4045M97.13484 147.94422H291.4045M97.13484 161.39368H291.4045M97.13484 174.84316H291.4045M97.13484 188.29264H291.4045M97.13484 201.7421H291.4045M97.13484 215.19158H291.4045"/>
<path transform="matrix(.900018,0,0,-.900018,-80.309009,198.11023)" stroke-width=".19926" stroke-linecap="butt" stroke-miterlimit="10" stroke-linejoin="miter" fill="none" stroke="#7f807f" d="M97.13484 132.36849V136.62099M129.5131 132.36849V136.62099M161.89139 132.36849V136.62099M226.64795 132.36849V136.62099M259.0262 132.36849V136.62099M291.4045 132.36849V136.62099"/>
<path transform="matrix(.900018,0,0,-.900018,-80.309009,198.11023)" stroke-width=".19926" stroke-linecap="butt" stroke-miterlimit="10" stroke-linejoin="miter" fill="none" stroke="#7f807f" d="M192.1438 53.7979H196.39551M192.1438 67.24738H196.39551M192.1438 80.69684H196.39551M192.1438 94.14632H196.39551M192.1438 107.5958H196.39551M192.1438 121.04526H196.39551M192.1438 147.94422H196.39551M192.1438 161.39368H196.39551M192.1438 174.84316H196.39551M192.1438 188.29264H196.39551M192.1438 201.7421H196.39551M192.1438 215.19158H196.39551"/>
<path transform="matrix(.900018,0,0,-.900018,-80.309009,198.11023)" stroke-width=".39851" stroke-linecap="butt" stroke-miterlimit="10" stroke-linejoin="miter" fill="none" stroke="#000000" d="M97.13484 134.49474H289.412"/>
<path transform="matrix(.900018,0,0,-.900018,180.16698,77.062549)" d="M1.99251 0-1.19551 1.59401 0 0-1.19551-1.59401"/>
<path transform="matrix(.900018,0,0,-.900018,-80.309009,198.11023)" stroke-width=".39851" stroke-linecap="butt" stroke-miterlimit="10" stroke-linejoin="miter" fill="none" stroke="#000000" d="M194.26967 53.7979V213.19908"/>
<path transform="matrix(0,-.900018,-.900018,-0,94.537189,6.2272188)" d="M1.99251 0-1.19551 1.59401 0 0-1.19551-1.59401"/>
<use data-text="&#x2212;" xlink:href="#font_1_1" transform="matrix(9.818386,0,0,-9.818386,.84111788,88.75535)"/>
<use data-text="3" xlink:href="#font_2_3" transform="matrix(9.818386,0,0,-9.818386,8.477772,88.75535)"/>
<use data-text="&#x2212;" xlink:href="#font_1_1" transform="matrix(9.818386,0,0,-9.818386,29.981896,88.75535)"/>
<use data-text="2" xlink:href="#font_2_2" transform="matrix(9.818386,0,0,-9.818386,37.61855,88.75535)"/>
<use data-text="&#x2212;" xlink:href="#font_1_1" transform="matrix(9.818386,0,0,-9.818386,59.12358,88.75535)"/>
<use data-text="1" xlink:href="#font_2_1" transform="matrix(9.818386,0,0,-9.818386,66.76024,88.75535)"/>
<use data-text="1" xlink:href="#font_2_1" transform="matrix(9.818386,0,0,-9.818386,121.22392,88.75535)"/>
<use data-text="2" xlink:href="#font_2_2" transform="matrix(9.818386,0,0,-9.818386,150.36472,88.75535)"/>
<use data-text="3" xlink:href="#font_2_3" transform="matrix(9.818386,0,0,-9.818386,179.50548,88.75535)"/>
<use data-text="&#x2212;" xlink:href="#font_1_1" transform="matrix(9.818386,0,0,-9.818386,76.626239,152.44602)"/>
<use data-text="6" xlink:href="#font_2_6" transform="matrix(9.818386,0,0,-9.818386,84.26289,152.44602)"/>
<use data-text="&#x2212;" xlink:href="#font_1_1" transform="matrix(9.818386,0,0,-9.818386,76.626239,140.34078)"/>
<use data-text="5" xlink:href="#font_2_5" transform="matrix(9.818386,0,0,-9.818386,84.26289,140.34078)"/>
<use data-text="&#x2212;" xlink:href="#font_1_1" transform="matrix(9.818386,0,0,-9.818386,76.626239,128.23644)"/>
<use data-text="4" xlink:href="#font_2_4" transform="matrix(9.818386,0,0,-9.818386,84.26289,128.23644)"/>
<use data-text="&#x2212;" xlink:href="#font_1_1" transform="matrix(9.818386,0,0,-9.818386,76.626239,116.131198)"/>
<use data-text="3" xlink:href="#font_2_3" transform="matrix(9.818386,0,0,-9.818386,84.26289,116.131198)"/>
<use data-text="&#x2212;" xlink:href="#font_1_1" transform="matrix(9.818386,0,0,-9.818386,76.626239,104.02685)"/>
<use data-text="2" xlink:href="#font_2_2" transform="matrix(9.818386,0,0,-9.818386,84.26289,104.02685)"/>
<use data-text="&#x2212;" xlink:href="#font_1_1" transform="matrix(9.818386,0,0,-9.818386,76.626239,91.92161)"/>
<use data-text="1" xlink:href="#font_2_1" transform="matrix(9.818386,0,0,-9.818386,84.26289,91.92161)"/>
<use data-text="1" xlink:href="#font_2_1" transform="matrix(9.818386,0,0,-9.818386,84.26288,68.12154)"/>
<use data-text="2" xlink:href="#font_2_2" transform="matrix(9.818386,0,0,-9.818386,84.26288,56.016298)"/>
<use data-text="3" xlink:href="#font_2_3" transform="matrix(9.818386,0,0,-9.818386,84.26288,43.91194)"/>
<use data-text="4" xlink:href="#font_2_4" transform="matrix(9.818386,0,0,-9.818386,84.26288,31.806702)"/>
<use data-text="5" xlink:href="#font_2_5" transform="matrix(9.818386,0,0,-9.818386,84.26288,19.702363)"/>
<use data-text="6" xlink:href="#font_2_6" transform="matrix(9.818386,0,0,-9.818386,84.26288,7.5980226)"/>
<g clip-path="url(#clip_3)">
<path transform="matrix(.900018,0,0,-.900018,-80.309009,198.11023)" stroke-width=".79703" stroke-linecap="butt" stroke-miterlimit="10" stroke-linejoin="miter" fill="none" stroke="#0000ff" d="M197.50749 268.98948 198.27469 243.2243 199.04187 225.74536 199.80907 213.10689 200.57628 203.54431 201.34346 196.05567 202.11067 190.03163 202.87786 185.08225 203.64507 180.94249 204.41225 177.42948 205.17946 174.41007 205.94664 171.78743 206.71385 169.4916 207.48105 167.45537 208.24823 165.64774 209.01544 164.02574 209.78263 162.56513 210.54984 161.24304 211.31702 160.04067 212.08423 158.93917 212.85141 157.9291 213.61862 157.00107 214.3858 156.14167 215.153 155.34679 215.92021 154.60842 216.6874 153.91846 217.4546 153.27692 218.22179 152.67574 218.989 152.11086 219.75618 151.58094 220.52339 151.08063 221.29058 150.61124 222.05779 150.16605 222.82497 149.74509 223.59217 149.34699 224.35936 148.96636 225.12656 148.60726 225.89376 148.26564 226.66095 147.93868 227.42816 147.62761 228.19535 147.33063 228.96256 147.04673 229.72974 146.77532 230.49695 146.5152 231.26413 146.26586 232.03133 146.02686 232.79853 145.79712 233.56572 145.57656 234.33293 145.36418 235.10012 145.15988 235.86733 144.9634 236.6345 144.77376 237.40172 144.59111 238.1689 144.41439 238.93611 144.24398 239.7033 144.0795 240.47049 143.92012 241.23769 143.76613 242.00489 143.61725 242.77208 143.47307 243.53928 143.33333 244.30648 143.1976 245.07367 143.06621 245.84088 142.93885 246.60807 142.81511 247.37528 142.69487 248.14246 142.578 248.90966 142.4646 249.67685 142.35422 250.44405 142.24687 251.21125 142.14238 251.97844 142.04058 252.74564 141.94171 253.51284 141.84514 254.28005 141.75127 255.04723 141.65967 255.81444 141.5705 256.58164 141.48308 257.34883 141.39821 258.116 141.31537 258.8832 141.23427 259.6504 141.15517 260.4176 141.07811 261.1848 141.00254 261.952 140.92868 262.7192 140.8566 263.4864 140.786 264.2536 140.71712 265.02079 140.6496 265.788 140.58345 266.55519 140.51903 267.32237 140.45581 268.08958 140.39379 268.85679 140.33315 269.62397 140.27385 270.39118 140.21533 271.15837 140.15845 271.92555 140.10248 272.69276 140.04747 273.45997 139.99369 274.22715 139.94095 274.9944 139.88932 275.7615 139.83834 276.52876 139.78871 277.29588 139.73975 278.06315 139.69174 278.83039 139.64452 279.5975 139.59827 280.36473 139.55281 281.13188 139.50815 281.8991 139.46417 282.66636 139.42115 283.43348 139.37865 284.2007 139.33693 284.96788 139.2962 285.73509 139.25583 286.50233 139.21605 287.26945 139.17729 288.0367 139.13884 288.80384 139.10118 289.57109 139.0642 290.33833 139.02776 291.10545 138.99184 291.87269 138.95635 292.6398 138.92163 293.40708 138.88735 294.1743 138.8537 294.9414 138.82036 295.70866 138.78754 296.4758 138.75537 297.24305 138.72377 298.01029 138.6923 298.7774 138.66152 299.54466 138.63126 300.31178 138.60126 301.07905 138.57193 301.84629 138.54274 302.6134 138.51398 303.38066 138.48586 304.14778 138.45801 304.915 138.43045 305.68226 138.40341 306.4494 138.37679 307.2166 138.3503 307.98374 138.3242 308.75099 138.29851 309.51823 138.27323 310.28535 138.24822 311.0526 138.2236 311.81974 138.19925 312.58699 138.17545 313.35423 138.15163 314.12135 138.12824 314.88859 138.10497 315.65574 138.08225 316.42295 138.05965 317.1902 138.03745 317.9573 138.01554 318.72456 137.99373 319.49168 137.97249 320.25895 137.95111 321.02619 137.93015 321.7933 137.90956 322.56056 137.88912 323.32768 137.86907 324.0949 137.84889 324.86216 137.8294 325.6293 137.80989 326.3965 137.79067 327.16368 137.77156 327.9309 137.75286 328.69816 137.73418 329.46528 137.71573 330.23255 137.69759 330.99964 137.67955 331.76689 137.66196 332.53413 137.64432 333.30125 137.62683 334.0685 137.60977 334.83564 137.59282 335.60289 137.576 336.3701 137.55933 337.13725 137.54265 337.90449 137.5265 338.67164 137.5105 339.43888 137.49449 340.2061 137.47863 340.9732 137.46303 341.74046 137.4477 342.5076 137.4325 343.27485 137.41732 344.04209 137.40236 344.8092 137.38758 345.57646 137.37277 346.34358 137.35811 347.1108 137.34386 347.87806 137.3296 348.64518 137.31549 349.41246 137.30164 350.17955 137.2878 350.9468 137.27407 351.71406 137.26047 352.48118 137.24716 353.2484 137.23386 354.01557 137.22066 354.78279 137.20775 355.55003 137.19484 356.31715 137.18195 357.08439 137.16942 357.85154 137.15692 358.61878 137.14427 359.38603 137.13205 360.1531 137.11994 360.92039 137.10784 361.6875 137.09572 362.45478 137.08403 363.222 137.07219 363.9891 137.06063 364.75636 137.0489 365.52348 137.03763 366.29075 137.0262 367.05799 137.01515 367.8251 137.004 368.59236 136.99297 369.35948 136.98181 370.1267 136.97092 370.89399 136.9603 371.6611 136.94966 372.42835 136.9389 373.19548 136.9284 373.96269 136.91819 374.72993 136.9077 375.49708 136.89775 376.2643 136.8874 377.03144 136.8773 377.79869 136.8675 378.56593 136.85765 379.33305 136.84786 380.1003 136.83817 380.86744 136.82849 381.63468 136.8188 382.4019 136.80937 383.16905 136.79999 383.93626 136.79084 384.7034 136.78154 385.47065 136.77227 386.23789 136.76313 387.005 136.75423 387.77226 136.74523 388.53938 136.73636"/>
<use data-text="y" xlink:href="#font_4_2" transform="matrix(9.818386,0,0,-9.818386,118.01445,53.743745)" fill="#0000ff"/>
<use data-text="=" xlink:href="#font_2_7" transform="matrix(9.818386,0,0,-9.818386,125.90761,53.743745)" fill="#0000ff"/>
<use data-text="x" xlink:href="#font_4_1" transform="matrix(9.818386,0,0,-9.818386,136.27132,53.743745)" fill="#0000ff"/>
<use data-text="&#x2212;" xlink:href="#font_5_1" transform="matrix(7.173233,0,0,-7.173233,141.88292,50.180574)" fill="#0000ff"/>
<use data-text="1" xlink:href="#font_6_1" transform="matrix(7.173233,0,0,-7.173233,147.81134,50.180574)" fill="#0000ff"/>
<path transform="matrix(.900018,0,0,-.900018,-80.309009,198.11023)" stroke-width=".79703" stroke-linecap="butt" stroke-miterlimit="10" stroke-linejoin="miter" fill="none" stroke="#0000ff" d="M0 132.25325 .7672 132.24423 1.53438 132.23523 2.30159 132.22635 3.06877 132.2172 3.83598 132.20792 4.60318 132.19863 5.37038 132.18949 6.13757 132.18009 6.90477 132.17066 7.67197 132.16098 8.43915 132.15129 9.20636 132.1416 9.97354 132.1318 10.74075 132.12197 11.50795 132.11217 12.27515 132.10205 13.04234 132.09172 13.80954 132.08176 14.57674 132.07128 15.34393 132.06105 16.11113 132.05055 16.87831 132.0398 17.64552 132.02916 18.4127 132.01856 19.17992 132.00765 19.94711 131.99649 20.71431 131.98546 21.48149 131.9743 22.2487 131.96326 23.0159 131.95183 23.7831 131.94055 24.5503 131.92884 25.31747 131.91728 26.08469 131.90543 26.85187 131.89374 27.61908 131.88162 28.38626 131.86952 29.15347 131.8574 29.92065 131.84519 30.68787 131.83254 31.45506 131.82004 32.22226 131.80751 32.98946 131.79462 33.75664 131.78171 34.52385 131.7688 35.29103 131.7556 36.05824 131.74231 36.82544 131.72899 37.59264 131.7154 38.35983 131.70166 39.12703 131.68782 39.89423 131.67397 40.66142 131.65985 41.42862 131.6456 42.1958 131.63135 42.96301 131.61669 43.7302 131.60189 44.4974 131.5871 45.26459 131.57215 46.0318 131.55696 46.79898 131.54177 47.5662 131.52645 48.33339 131.51084 49.10059 131.49497 49.86778 131.47896 50.63496 131.46295 51.40218 131.44681 52.16936 131.43013 52.93657 131.41345 53.70375 131.39664 54.47096 131.3797 55.23814 131.36263 56.00536 131.34514 56.77255 131.3275 57.53975 131.3099 58.30695 131.29187 59.07413 131.27373 59.84134 131.25528 60.60852 131.2366 61.37573 131.2179 62.14291 131.19879 62.91013 131.17957 63.67732 131.16007 64.44452 131.14057 65.2117 131.12039 65.97891 131.10034 66.7461 131.0799 67.51329 131.05931 68.2805 131.03836 69.04768 131.01697 69.8149 130.99573 70.58208 130.97393 71.34929 130.95201 72.11647 130.92981 72.88368 130.90721 73.65086 130.88449 74.41808 130.86122 75.18527 130.83783 75.95245 130.81403 76.71967 130.7902 77.4869 130.76586 78.25403 130.74126 79.02127 130.71623 79.7884 130.69095 80.55563 130.66526 81.32289 130.63918 82.09001 130.61267 82.85725 130.58605 83.62437 130.559 84.39162 130.53145 85.15886 130.5036 85.92598 130.47548 86.69324 130.44672 87.46036 130.41753 88.22762 130.3882 88.99484 130.3582 89.76198 130.32794 90.52922 130.29715 91.29636 130.26569 92.06358 130.23409 92.83083 130.20192 93.59796 130.1691 94.36519 130.13576 95.13232 130.10213 95.89957 130.06783 96.66682 130.033 97.43393 129.99762 98.20119 129.9617 98.9683 129.92527 99.73555 129.88828 100.50279 129.85062 101.26991 129.81217 102.03717 129.7734 102.80429 129.73363 103.57155 129.69326 104.33878 129.65253 105.10591 129.61081 105.87315 129.56832 106.64029 129.52529 107.40752 129.48131 108.17476 129.43665 108.9419 129.39119 109.70912 129.34494 110.47626 129.29772 111.2435 129.24971 112.01074 129.20075 112.77786 129.15097 113.54512 129.10015 114.31224 129.04853 115.0795 128.99578 115.84673 128.94199 116.61385 128.88698 117.3811 128.83101 118.14822 128.774 118.91547 128.7156 119.68271 128.65631 120.44984 128.59568 121.21707 128.53365 121.9842 128.47045 122.75145 128.406 123.51869 128.33972 124.28581 128.27234 125.05305 128.20346 125.82019 128.13288 126.58743 128.06078 127.35468 127.98692 128.1218 127.91135 128.88906 127.83429 129.65618 127.75519 130.42342 127.67409 131.19066 127.59125 131.9578 127.5064 132.72504 127.41896 133.49214 127.32979 134.2594 127.23819 135.02664 127.14433 135.79378 127.04774 136.561 126.9489 137.32814 126.84709 138.09539 126.74258 138.86263 126.63525 139.62975 126.52486 140.397 126.41147 141.16413 126.29459 141.93137 126.17435 142.69861 126.05061 143.46573 125.92326 144.23299 125.79185 145.0001 125.65613 145.76735 125.5164 146.53459 125.37221 147.30173 125.22334 148.06896 125.06934 148.83609 124.90997 149.60334 124.74548 150.37056 124.57507 151.1377 124.39835 151.90494 124.2157 152.67208 124.02606 153.43932 123.82957 154.20656 123.62527 154.97368 123.41292 155.74094 123.19234 156.50806 122.9626 157.2753 122.7236 158.04254 122.47426 158.80966 122.21414 159.5769 121.94273 160.34403 121.65884 161.11128 121.36186 161.87853 121.05078 162.64565 120.72382 163.41289 120.3822 164.18003 120.02312 164.94727 119.64247 165.71451 119.24437 166.48163 118.82341 167.24887 118.37822 168.016 117.90883 168.78325 117.40852 169.55049 116.8786 170.31761 116.31372 171.08487 115.71254 171.85199 115.071 172.61923 114.38104 173.38648 113.64267 174.15361 112.84647 174.92084 111.98839 175.68796 111.06036 176.45522 110.05031 177.22245 108.94879 177.98958 107.74641 178.75682 106.423 179.52396 104.96373 180.2912 103.34172 181.05844 101.53142 181.82556 99.4965 182.5928 97.20203 183.35994 94.57939 184.12717 91.55998 184.89443 88.04697 185.66155 83.90588 186.42879 78.95782 187.1959 72.93379 187.96317 65.44514 188.7304 55.87987 189.49753 43.24274 190.26477 25.76112 191.0319 0"/>
</g>
<use data-text="x" xlink:href="#font_4_1" transform="matrix(9.818386,0,0,-9.818386,172.89667,73.61074)"/>
<use data-text="y" xlink:href="#font_4_2" transform="matrix(9.818386,0,0,-9.818386,97.989048,12.113419)"/>
</svg>
