<svg xmlns="http://www.w3.org/2000/svg" xmlns:xlink="http://www.w3.org/1999/xlink" xmlns:inkscape="http://www.inkscape.org/namespaces/inkscape" version="1.1" width="212" height="168" viewBox="0 0 212 168">
<defs>
<path id="font_1_4" d="M.44898988 .20022583C.44898988 .3193512 .36698915 .41944886 .25898744 .41944886 .21099854 .41944886 .16799927 .40345765 .13198853 .36842347V.5637665C.1519928 .5577698 .18499756 .55078127 .21699524 .55078127 .33999635 .55078127 .4099884 .6417694 .4099884 .6547699 .4099884 .6607666 .40699769 .6657715 .3999939 .6657715 .39898683 .6657715 .39698792 .6657715 .3919983 .66278079 .37199403 .6537781 .32299806 .6337738 .2559967 .6337738 .21598816 .6337738 .16999817 .6407776 .12298584 .6617737 .114990238 .66477969 .11299133 .66477969 .11099243 .66477969 .100997928 .66477969 .100997928 .6567688 .100997928 .6407776V.34439088C.100997928 .32637025 .100997928 .31835938 .114990238 .31835938 .12199402 .31835938 .12399292 .32136537 .12799073 .32736207 .13899231 .3433838 .17599488 .39746095 .25698854 .39746095 .30899049 .39746095 .33399964 .35139466 .34199525 .33337403 .35798646 .29632569 .3600006 .25727845 .3600006 .20722962 .3600006 .17222595 .3600006 .11222839 .33599855 .07035828 .31199647 .031463624 .2749939 .0055389406 .22898865 .0055389406 .1559906 .0055389406 .09899902 .058380128 .08198547 .11723328 .084991458 .1162262 .08799744 .115234378 .09899902 .115234378 .13198853 .115234378 .14898682 .14022827 .14898682 .16423035 .14898682 .18823242 .13198853 .21322632 .09899902 .21322632 .084991458 .21322632 .049987794 .20622254 .049987794 .16023255 .049987794 .07434082 .11898804-.022460938 .23098755-.022460938 .34700013-.022460938 .44898988 .073349 .44898988 .20022583Z"/>
<path id="font_1_2" d="M.2939911 .64004519C.2939911 .66400149 .2939911 .6660156 .2709961 .6660156 .20899964 .60227969 .12098694 .60227969 .08898926 .60227969V.57128909C.10899353 .57128909 .16799927 .57128909 .21998596 .5972748V.07902527C.21998596 .042999269 .21699524 .0309906 .1269989 .0309906H.09498596V0C.12998963 .0029907227 .21699524 .0029907227 .25698854 .0029907227 .29699708 .0029907227 .38398744 .0029907227 .4189911 0V.0309906H.3869934C.29699708 .0309906 .2939911 .041992189 .2939911 .07902527V.64004519Z"/>
<path id="font_1_1" d="M.45999146 .31976319C.45999146 .39982606 .45498658 .47988893 .41999818 .5539398 .37399293 .65000918 .2919922 .6660156 .25 .6660156 .18998719 .6660156 .116989139 .64001467 .07598877 .54693606 .04399109 .47789 .038986207 .39982606 .038986207 .31976319 .038986207 .24472046 .042999269 .15464783 .083999637 .07859802 .1269989-.0024719239 .19999695-.022460938 .24899292-.022460938 .30299378-.022460938 .3789978-.0014648438 .4229889 .09359741 .45498658 .16265869 .45999146 .2407074 .45999146 .31976319M.24899292-.00047302247C.20999146-.00047302247 .15098572 .024551392 .1329956 .12062073 .12199402 .18066406 .12199402 .2727356 .12199402 .3317871 .12199402 .39582826 .12199402 .46188355 .12998963 .5159149 .14898682 .63500979 .22399903 .64401248 .24899292 .64401248 .28199769 .64401248 .34799195 .6259918 .36698915 .52693179 .3769989 .47088624 .3769989 .39482118 .3769989 .3317871 .3769989 .25672914 .3769989 .18867493 .3659973 .12461853 .35099793 .029556275 .2939911-.00047302247 .24899292-.00047302247Z"/>
<path id="font_1_3" d="M.1269989 .07699585 .23298645 .18003845C.3889923 .31811524 .44898988 .3721466 .44898988 .47216798 .44898988 .5860901 .35899354 .6660156 .23699951 .6660156 .12399292 .6660156 .049987794 .57411196 .049987794 .48516847 .049987794 .4291687 .099990848 .4291687 .102996829 .4291687 .11999512 .4291687 .15499878 .44117738 .15499878 .48217774 .15499878 .5081787 .13699341 .5341797 .101989749 .5341797 .09399414 .5341797 .09199524 .5341797 .08898926 .5331726 .11199951 .59806826 .1659851 .63500979 .22399903 .63500979 .31498719 .63500979 .35798646 .5541382 .35798646 .47216798 .35798646 .39215089 .30799867 .31311036 .25299073 .25108338L.06098938 .036987306C.049987794 .025985718 .049987794 .023986817 .049987794 0H.42099L.44898988 .17404175H.42399598C.4189911 .14402771 .4119873 .1000061 .4019928 .084991458 .394989 .07699585 .32899476 .07699585 .30699159 .07699585H.1269989Z"/>
<path id="font_2_82" d="M.4189911 0V.0309906H.3869934C.29699708 .0309906 .2939911 .041992189 .2939911 .07902527V.64012148C.2939911 .6640167 .2939911 .6660156 .2709961 .6660156 .20899964 .60227969 .12098694 .60227969 .08898926 .60227969V.57128909C.10899353 .57128909 .16799927 .57128909 .21998596 .5972748V.07902527C.21998596 .042999269 .21699524 .0309906 .1269989 .0309906H.09498596V0C.12998963 .0029907227 .21699524 .0029907227 .25698854 .0029907227 .29699708 .0029907227 .38398744 .0029907227 .4189911 0Z"/>
<path id="font_2_121" d="M.45999146 .31976319C.45999146 .39982606 .45498658 .47988893 .41999818 .5539398 .37399293 .65000918 .2919922 .6660156 .25 .6660156 .18998719 .6660156 .116989139 .64001467 .07598877 .54693606 .04399109 .47789 .038986207 .39982606 .038986207 .31976319 .038986207 .24472046 .042999269 .15464783 .083999637 .07859802 .1269989-.0024719239 .19999695-.022460938 .24899292-.022460938 .30299378-.022460938 .3789978-.0014648438 .4229889 .09359741 .45498658 .16265869 .45999146 .2407074 .45999146 .31976319M.3769989 .3317871C.3769989 .25672914 .3769989 .18867493 .3659973 .12461853 .35099793 .029556275 .2939911-.00047302247 .24899292-.00047302247 .20999146-.00047302247 .15098572 .024551392 .1329956 .12062073 .12199402 .18066406 .12199402 .2727356 .12199402 .3317871 .12199402 .39582826 .12199402 .46188355 .12998963 .5159149 .14898682 .63500979 .22399903 .64401248 .24899292 .64401248 .28199769 .64401248 .34799195 .6259918 .36698915 .52693179 .3769989 .47088624 .3769989 .39482118 .3769989 .3317871Z"/>
<path id="font_2_107" d="M.44898988 .17396546H.42399598C.4189911 .14398194 .4119873 .099990848 .4019928 .084991458 .394989 .07699585 .32899476 .07699585 .30699159 .07699585H.1269989L.23298645 .17996216C.3889923 .31803895 .44898988 .37210084 .44898988 .47216798 .44898988 .5860901 .35899354 .6660156 .23699951 .6660156 .12399292 .6660156 .049987794 .57411196 .049987794 .48516847 .049987794 .4291687 .099990848 .4291687 .102996829 .4291687 .11999512 .4291687 .15499878 .44117738 .15499878 .48217774 .15499878 .5081787 .13699341 .5341797 .101989749 .5341797 .09399414 .5341797 .09199524 .5341797 .08898926 .5331726 .11199951 .59806826 .1659851 .63500979 .22399903 .63500979 .31498719 .63500979 .35798646 .5541382 .35798646 .47216798 .35798646 .39196778 .30799867 .31297303 .25299073 .25097657L.06098938 .036987306C.049987794 .025985718 .049987794 .023986817 .049987794 0H.42099L.44898988 .17396546Z"/>
<path id="font_2_106" d="M.45700074 .17037964C.45700074 .252594 .3939972 .33088685 .2899933 .35191346 .37199403 .37893678 .42999269 .4490509 .42999269 .52809146 .42999269 .6100464 .34199525 .6660156 .24598694 .6660156 .14498902 .6660156 .068984989 .60606387 .068984989 .53009036 .068984989 .49710084 .09098816 .47808839 .11999512 .47808839 .15098572 .47808839 .17098999 .50009158 .17098999 .5290985 .17098999 .57910159 .12399292 .57910159 .10899353 .57910159 .13999939 .62802127 .20599365 .64100649 .24198914 .64100649 .2829895 .64100649 .33799745 .6190338 .33799745 .5290985 .33799745 .51708987 .33599855 .45906068 .30999757 .4149933 .27999879 .36691285 .24598694 .36390687 .22099304 .36291505 .21299744 .36190797 .18899536 .35990907 .18199158 .35990907 .17399597 .35890199 .16699219 .35791017 .16699219 .3479004 .16699219 .33691407 .17399597 .33691407 .19099427 .33691407H.23498535C.31698609 .33691407 .35398866 .2686615 .35398866 .17037964 .35398866 .034469606 .2849884 .0055389406 .24099732 .0055389406 .19799805 .0055389406 .12298584 .022491456 .08799744 .08137512 .12298584 .07637024 .1539917 .09837341 .1539917 .1363678 .1539917 .17237854 .1269989 .19238281 .09799194 .19238281 .07398987 .19238281 .041992189 .17837525 .041992189 .1343689 .041992189 .043441774 .1349945-.022460938 .24398804-.022460938 .3659973-.022460938 .45700074 .06838989 .45700074 .17037964Z"/>
<path id="font_2_57" d="M.47099305 .16503906V.19602967H.37098695V.6507721C.37098695 .6707611 .37098695 .6767578 .35499574 .6767578 .34599305 .6767578 .34298707 .6767578 .33499146 .6647644L.027999878 .19602967V.16503906H.2939911V.07800293C.2939911 .041992189 .2919922 .0309906 .21798706 .0309906H.19699097V0C.23799134 .0029907227 .2899933 .0029907227 .33198548 .0029907227 .37399293 .0029907227 .4269867 .0029907227 .46798707 0V.0309906H.44699098C.37298585 .0309906 .37098695 .041992189 .37098695 .07800293V.16503906H.47099305M.2999878 .19602967H.055999757L.2999878 .56881716V.19602967Z"/>
<clipPath id="clip_3">
<path transform="matrix(.80003997,0,0,-.80003997,23.702986,156.09766)" d="M0 0H233.11995V193.66312H0Z"/>
</clipPath>
<path id="font_4_2" d="M.20599365 .3996582H.2999878C.31999208 .3996582 .32998658 .3996582 .32998658 .41966249 .32998658 .43066407 .31999208 .43066407 .3019867 .43066407H.21398926C.25 .5724945 .25498963 .59246829 .25498963 .59846499 .25498963 .61546328 .24299622 .62545779 .22599793 .62545779 .22299195 .62545779 .19499207 .62446597 .18598938 .58947756L.14698792 .43066407H.052993776C.032989503 .43066407 .022994996 .43066407 .022994996 .4116516 .022994996 .3996582 .0309906 .3996582 .050994874 .3996582H.13899231C.066986087 .11608887 .06298828 .099121097 .06298828 .08114624 .06298828 .02722168 .100997928-.0107421879 .15499878-.0107421879 .25698854-.0107421879 .31399537 .13505554 .31399537 .14305115 .31399537 .1530304 .30599977 .1530304 .3019867 .1530304 .29299928 .1530304 .2919922 .15003968 .2869873 .13905335 .24398804 .035217287 .19099427 .011245728 .15699768 .011245728 .13598633 .011245728 .12599182 .024230957 .12599182 .057174684 .12599182 .08114624 .12799073 .088134769 .13198853 .10510254L.20599365 .3996582Z"/>
<path id="font_2_85" d="M.33099366-.2400055C.33099366-.23701477 .33099366-.23500061 .31399537-.21800232 .18899536-.0920105 .15699768 .09700012 .15699768 .25 .15699768 .42399598 .19499207 .59799197 .31799317 .72299197 .33099366 .7350006 .33099366 .7369995 .33099366 .73999026 .33099366 .746994 .32699586 .75 .32099916 .75 .31098939 .75 .22099304 .6819916 .1619873 .5549927 .11099243 .44499208 .09899902 .33399964 .09899902 .25 .09899902 .17199707 .10998535 .050994874 .16499329-.06201172 .22499085-.18501282 .31098939-.25 .32099916-.25 .32699586-.25 .33099366-.24700928 .33099366-.2400055Z"/>
<path id="font_2_118" d="M.5079956 .3996582V.43066407C.4850006 .4286499 .45599366 .42765809 .43299867 .42765809L.34599305 .43066407V.3996582C.3769989 .39866639 .3929901 .3816681 .3929901 .35668946 .3929901 .34669496 .3919983 .34469605 .3869934 .33270265L.28599549 .08685303 .1749878 .35568238C.17098999 .36567689 .16899109 .36967469 .16899109 .3736725 .16899109 .3996582 .20599365 .3996582 .22499085 .3996582V.43066407L.115997318 .42765809C.08898926 .42765809 .04899597 .4286499 .018997193 .43066407V.3996582C.066986087 .3996582 .085998538 .3996582 .099990848 .36468507L.25-.000091552738 .22499085-.059066774C.20298767-.11407471 .1749878-.18309021 .11099243-.18309021 .10598755-.18309021 .08299255-.18309021 .06399536-.16503906 .09498596-.16104126 .102996829-.13905335 .102996829-.123046878 .102996829-.0970459 .083999637-.08103943 .06098938-.08103943 .040985109-.08103943 .018997193-.09403992 .018997193-.124053958 .018997193-.16905213 .06098938-.20507813 .11099243-.20507813 .17399597-.20507813 .21499634-.14804077 .23899842-.091049198L.4149933 .33569337C.44099427 .39865113 .49198915 .3996582 .5079956 .3996582Z"/>
<path id="font_2_50" d="M.4149933 .11933899C.4149933 .12934876 .40699769 .13134766 .4019928 .13134766 .3929901 .13134766 .3909912 .12535095 .3889923 .11734009 .35398866 .014251709 .2639923 .014251709 .2539978 .014251709 .20399475 .014251709 .1639862 .044281007 .14099121 .08131409 .11099243 .12934876 .11099243 .19540406 .11099243 .23144531H.3899994C.4119873 .23144531 .4149933 .23144531 .4149933 .2524414 .4149933 .35131837 .36099244 .4482422 .23599243 .4482422 .11999512 .4482422 .027999878 .34532167 .027999878 .22042847 .027999878 .08631897 .1329956-.0107421879 .24798584-.0107421879 .36999513-.0107421879 .4149933 .10032654 .4149933 .11933899M.34899903 .2524414H.11199951C.117996219 .40126039 .20199585 .426239 .23599243 .426239 .33898927 .426239 .34899903 .2913971 .34899903 .2524414Z"/>
<path id="font_2_28" d="M.48298646 .08912659V.14511109H.45799256V.08912659C.45799256 .03112793 .43299867 .025131226 .42199708 .025131226 .3889923 .025131226 .3849945 .070129398 .3849945 .07511902V.27508546C.3849945 .31707765 .3849945 .3560791 .34899903 .39312745 .30999757 .43223573 .2599945 .4482422 .21199036 .4482422 .12998963 .4482422 .06098938 .40115357 .06098938 .335083 .06098938 .30508424 .08099365 .28808595 .10699463 .28808595 .1349945 .28808595 .15299988 .30807496 .15299988 .33407594 .15299988 .3460846 .147995 .37908937 .101989749 .38008119 .1289978 .41519166 .17799378 .426239 .20999146 .426239 .25898744 .426239 .31599427 .38710023 .31599427 .29808045V.26107789C.2649994 .25808717 .19499207 .25508119 .13198853 .22509766 .056991579 .19110108 .03199768 .13911438 .03199768 .09512329 .03199768 .014251709 .1289978-.0107421879 .19198609-.0107421879 .2579956-.0107421879 .3039856 .029251099 .32299806 .07624817 .32699586 .036132814 .35398866-.005859375 .40098573-.005859375 .42199708-.005859375 .48298646 .008132935 .48298646 .08912659M.31599427 .14013672C.31599427 .04525757 .24398804 .011245728 .19898987 .011245728 .1499939 .011245728 .10899353 .04624939 .10899353 .09625244 .10899353 .15124512 .15098572 .23425293 .31599427 .24024964V.14013672Z"/>
<path id="font_2_96" d="M.3639984 .38137818C.3639984 .41337586 .33299256 .4423828 .2899933 .4423828 .21699524 .4423828 .18099976 .37538148 .16699219 .3323822V.4423828L.027999878 .43066407V.3996582C.09799194 .3996582 .10598755 .39266969 .10598755 .34370423V.07595825C.10598755 .0309906 .09498596 .0309906 .027999878 .0309906V0L.14199829 .0029907227C.18199158 .0029907227 .22898865 .0029907227 .2689972 0V.0309906H.24798584C.17399597 .0309906 .17199707 .04197693 .17199707 .07795715V.23181153C.17199707 .33137513 .21398926 .42037965 .2899933 .42037965 .29699708 .42037965 .29899598 .42037965 .30099488 .41937257 .2979889 .41838075 .27799989 .40637208 .27799989 .3803711 .27799989 .35237123 .29899598 .33737184 .32099916 .33737184 .33898927 .33737184 .3639984 .3493805 .3639984 .38137818Z"/>
<path id="font_2_98" d="M.3600006 .12823487C.3600006 .18122864 .32998658 .21122742 .31799317 .22323609 .2849884 .25523377 .24598694 .26322938 .20399475 .27124024 .147995 .28224183 .08099365 .29522706 .08099365 .35324098 .08099365 .38822938 .10699463 .42922975 .19299317 .42922975 .30299378 .42922975 .30799867 .3392334 .30999757 .30822755 .31098939 .2992401 .32199098 .2992401 .32199098 .2992401 .33499146 .2992401 .33499146 .30422975 .33499146 .32322694V.4242401C.33499146 .4412384 .33499146 .4482422 .32398988 .4482422 .31900025 .4482422 .31698609 .4482422 .3039856 .43623353 .30099488 .43223573 .29100038 .42323304 .2869873 .42022706 .24899292 .4482422 .20799256 .4482422 .19299317 .4482422 .070999149 .4482422 .032989503 .38124085 .032989503 .3252411 .032989503 .29023744 .04899597 .26223756 .07598877 .24023438 .10798645 .2142334 .13598633 .2082367 .20799256 .19422913 .22999573 .19021607 .31199647 .17422486 .31199647 .10221863 .31199647 .051223756 .2769928 .011245728 .19898987 .011245728 .114990238 .011245728 .07899475 .068222049 .05999756 .1532135 .056991579 .16621399 .055999757 .17021179 .04598999 .17021179 .032989503 .17021179 .032989503 .16322327 .032989503 .1452179V.013214111C.032989503-.003753662 .032989503-.0107421879 .04399109-.0107421879 .04899597-.0107421879 .049987794-.009750366 .068984989 .009246826 .070999149 .011245728 .070999149 .013214111 .08898926 .032226564 .1329956-.009750366 .17799378-.0107421879 .19898987-.0107421879 .31399537-.0107421879 .3600006 .05621338 .3600006 .1282196V.12823487Z"/>
<path id="font_2_86" d="M.2889862 .25C.2889862 .32798768 .27799989 .44898988 .22299195 .56199648 .16299439 .68499758 .07699585 .75 .066986087 .75 .06098938 .75 .056991579 .74598696 .056991579 .73999026 .056991579 .7369995 .056991579 .7350006 .07598877 .71699526 .17399597 .6179962 .23098755 .45899964 .23098755 .25 .23098755 .07899475 .19400025-.09700012 .069992069-.2230072 .056991579-.23500061 .056991579-.23701477 .056991579-.2400055 .056991579-.2460022 .06098938-.25 .066986087-.25 .07699585-.25 .16699219-.18200684 .22599793-.055007936 .2769928 .054992677 .2889862 .16600037 .2889862 .25Z"/>
<path id="font_4_1" d="M.1599884 .07795715C.1499939 .038986207 .147995 .0309906 .068984989 .0309906 .051986696 .0309906 .041992189 .0309906 .041992189 .010986328 .041992189 0 .050994874 0 .068984989 0H.42599488C.58399966 0 .70199587 .11791992 .70199587 .21585083 .70199587 .28778077 .6439972 .3457489 .5469971 .35673524 .651001 .37573243 .7559967 .44970704 .7559967 .5446625 .7559967 .6186218 .6899872 .6826172 .56999209 .6826172H.23399353C.21499634 .6826172 .20498657 .6826172 .20498657 .6626129 .20498657 .6516113 .21398926 .6516113 .23298645 .6516113 .23498535 .6516113 .2539978 .6516113 .2709961 .6496124 .2889862 .6476135 .2979889 .64660647 .2979889 .6336212 .2979889 .6296234 .29699708 .62661746 .2939911 .614624L.1599884 .07795715M.31098939 .36573792 .37298585 .6136322C.38198854 .64860537 .38398744 .6516113 .4269867 .6516113H.55599978C.6439972 .6516113 .6649933 .5926361 .6649933 .5486603 .6649933 .46069337 .57899478 .36573792 .45700074 .36573792H.31098939M.2659912 .0309906C.2519989 .0309906 .25 .0309906 .24398804 .03199768 .23399353 .032989503 .23098755 .033996583 .23098755 .04197693 .23098755 .04498291 .23098755 .04698181 .23599243 .064971927L.30499269 .34375H.49398805C.58999636 .34375 .60899356 .2698059 .60899356 .22683716 .60899356 .12791443 .519989 .0309906 .4019928 .0309906H.2659912Z"/>
<path id="font_2_47" d="M.5269928 0V.0309906C.45700074 .0309906 .44898988 .038009645 .44898988 .0871582V.69433596L.30499269 .6826172V.6516113C.375 .6516113 .3829956 .64463809 .3829956 .59580996V.38035584C.35398866 .41636659 .31098939 .4423828 .25698854 .4423828 .13899231 .4423828 .033996583 .3443451 .033996583 .21531677 .033996583 .088272098 .13198853-.0107421879 .24598694-.0107421879 .30999757-.0107421879 .35499574 .023254395 .37998963 .055267335V-.0107421879L.5269928 0M.37998963 .117996219C.37998963 .099990848 .37998963 .09799194 .36898805 .08099365 .33898927 .033218385 .2939911 .011245728 .25099183 .011245728 .20599365 .011245728 .16999817 .037216188 .1459961 .075164798 .11999512 .1161499 .116989139 .17320252 .116989139 .21421814 .116989139 .25125123 .11898804 .31129457 .147995 .35632325 .16899109 .38734437 .20698548 .42037965 .26098634 .42037965 .29599 .42037965 .33799745 .405365 .36898805 .3603363 .37998963 .34332276 .37998963 .34132386 .37998963 .32330323V.117996219Z"/>
<path id="font_2_81" d="M.47099305 .21424866C.47099305 .34223939 .37098695 .4482422 .25 .4482422 .125 .4482422 .027999878 .3392334 .027999878 .21424866 .027999878 .085250858 .13198853-.0107421879 .24899292-.0107421879 .36999513-.0107421879 .47099305 .087249759 .47099305 .21424866M.3880005 .22224427C.3880005 .18624878 .3880005 .13224793 .3659973 .08824158 .34399415 .04324341 .2999878 .014251709 .25 .014251709 .20698548 .014251709 .16299439 .035247804 .13598633 .08125305 .11099243 .12524414 .11099243 .18624878 .11099243 .22224427 .11099243 .26124574 .11099243 .31523133 .1349945 .35923768 .1619873 .40522767 .20899964 .426239 .24899292 .426239 .29299928 .426239 .33599855 .40423585 .3619995 .36123658 .3880005 .3182373 .3880005 .26023866 .3880005 .22224427Z"/>
<path id="font_2_72" d="M.25498963 0V.0309906C.18798828 .0309906 .1769867 .0309906 .1769867 .07601929V.69433596L.032989503 .6826172V.6516113C.102996829 .6516113 .11099243 .64460757 .11099243 .5956421V.07595825C.11099243 .0309906 .099990848 .0309906 .032989503 .0309906V0L.14399719 .0029907227 .25498963 0Z"/>
</defs>
<path transform="matrix(.80003997,0,0,-.80003997,23.702986,156.09766)" stroke-width=".39851" stroke-linecap="butt" stroke-miterlimit="10" stroke-linejoin="miter" fill="none" stroke="#bfbfbf" d="M55.50476 0V193.66312M111.0095 0V193.66312M166.51425 0V193.66312M222.019 0V193.66312"/>
<path transform="matrix(.80003997,0,0,-.80003997,23.702986,156.09766)" stroke-width=".39851" stroke-linecap="butt" stroke-miterlimit="10" stroke-linejoin="miter" fill="none" stroke="#bfbfbf" d="M0 38.73264H233.11995M0 77.46526H233.11995M0 116.19788H233.11995M0 154.9305H233.11995"/>
<path transform="matrix(.80003997,0,0,-.80003997,23.702986,156.09766)" stroke-width=".19926" stroke-linecap="butt" stroke-miterlimit="10" stroke-linejoin="miter" fill="none" stroke="#7f807f" d="M55.50476-2.12596V2.12596M111.0095-2.12596V2.12596M166.51425-2.12596V2.12596M222.019-2.12596V2.12596"/>
<path transform="matrix(.80003997,0,0,-.80003997,23.702986,156.09766)" stroke-width=".19926" stroke-linecap="butt" stroke-miterlimit="10" stroke-linejoin="miter" fill="none" stroke="#7f807f" d="M-2.12625 38.73264H2.12625M-2.12625 77.46526H2.12625M-2.12625 116.19788H2.12625M-2.12625 154.9305H2.12625"/>
<path transform="matrix(.80003997,0,0,-.80003997,23.702986,156.09766)" stroke-width=".39851" stroke-linecap="butt" stroke-miterlimit="10" stroke-linejoin="miter" fill="none" stroke="#000000" d="M0 0H231.12746"/>
<path transform="matrix(.80003997,0,0,-.80003997,208.61418,156.09766)" d="M1.99251 0-1.19551 1.59401 0 0-1.19551-1.59401"/>
<path transform="matrix(.80003997,0,0,-.80003997,23.702986,156.09766)" stroke-width=".39851" stroke-linecap="butt" stroke-miterlimit="10" stroke-linejoin="miter" fill="none" stroke="#000000" d="M0 0V191.67063"/>
<path transform="matrix(0,-.80003997,-.80003997,-0,23.702986,2.7534943)" d="M1.99251 0-1.19551 1.59401 0 0-1.19551-1.59401"/>
<use data-text="5" xlink:href="#font_1_4" transform="matrix(8.7277159,0,0,-8.7277159,65.9267,166.49097)"/>
<use data-text="1" xlink:href="#font_1_2" transform="matrix(8.7277159,0,0,-8.7277159,108.1512,166.49097)"/>
<use data-text="0" xlink:href="#font_1_1" transform="matrix(8.7277159,0,0,-8.7277159,112.51506,166.49097)"/>
<use data-text="1" xlink:href="#font_1_2" transform="matrix(8.7277159,0,0,-8.7277159,152.55742,166.49097)"/>
<use data-text="5" xlink:href="#font_1_4" transform="matrix(8.7277159,0,0,-8.7277159,156.92127,166.49097)"/>
<use data-text="2" xlink:href="#font_1_3" transform="matrix(8.7277159,0,0,-8.7277159,196.96283,166.49097)"/>
<use data-text="0" xlink:href="#font_1_1" transform="matrix(8.7277159,0,0,-8.7277159,201.32669,166.49097)"/>
<use data-text="1" xlink:href="#font_2_82" transform="matrix(8.7277159,0,0,-8.7277159,1.4778748,127.92025)"/>
<use data-text="0" xlink:href="#font_2_121" transform="matrix(8.7277159,0,0,-8.7277159,5.841728,127.92025)"/>
<use data-text="0" xlink:href="#font_2_121" transform="matrix(8.7277159,0,0,-8.7277159,10.205589,127.92025)"/>
<use data-text="0" xlink:href="#font_2_121" transform="matrix(8.7277159,0,0,-8.7277159,14.569447,127.92025)"/>
<use data-text="2" xlink:href="#font_2_107" transform="matrix(8.7277159,0,0,-8.7277159,1.4778748,96.9323)"/>
<use data-text="0" xlink:href="#font_2_121" transform="matrix(8.7277159,0,0,-8.7277159,5.841728,96.9323)"/>
<use data-text="0" xlink:href="#font_2_121" transform="matrix(8.7277159,0,0,-8.7277159,10.205589,96.9323)"/>
<use data-text="0" xlink:href="#font_2_121" transform="matrix(8.7277159,0,0,-8.7277159,14.569447,96.9323)"/>
<use data-text="3" xlink:href="#font_2_106" transform="matrix(8.7277159,0,0,-8.7277159,1.4778748,65.94516)"/>
<use data-text="0" xlink:href="#font_2_121" transform="matrix(8.7277159,0,0,-8.7277159,5.841728,65.94516)"/>
<use data-text="0" xlink:href="#font_2_121" transform="matrix(8.7277159,0,0,-8.7277159,10.205589,65.94516)"/>
<use data-text="0" xlink:href="#font_2_121" transform="matrix(8.7277159,0,0,-8.7277159,14.569447,65.94516)"/>
<use data-text="4" xlink:href="#font_2_57" transform="matrix(8.7277159,0,0,-8.7277159,1.4778748,35.00521)"/>
<use data-text="0" xlink:href="#font_2_121" transform="matrix(8.7277159,0,0,-8.7277159,5.841728,35.00521)"/>
<use data-text="0" xlink:href="#font_2_121" transform="matrix(8.7277159,0,0,-8.7277159,10.205589,35.00521)"/>
<use data-text="0" xlink:href="#font_2_121" transform="matrix(8.7277159,0,0,-8.7277159,14.569447,35.00521)"/>
<g clip-path="url(#clip_3)">
<path transform="matrix(.80003997,0,0,-.80003997,23.702986,156.09766)" stroke-width=".79703" stroke-linecap="butt" stroke-miterlimit="10" stroke-linejoin="miter" fill="none" stroke="#0000ff" d="M0 38.73264 .93622 38.95958 1.87244 39.1877 2.80865 39.41742 3.74487 39.64828 4.68109 39.88026 5.61732 40.1146 6.55356 40.34892 7.48978 40.58598 8.426 40.82416 9.36221 41.06358 10.29843 41.30406 11.23463 41.54655 12.17085 41.78981 13.10709 42.03455 14.0433 42.28094 14.97954 42.52841 15.91576 42.77821 16.85197 43.02887 17.7882 43.281 18.72443 43.53471 19.66064 43.78992 20.59686 44.04637 21.53308 44.30469 22.46928 44.5642 23.4055 44.82602 24.34175 45.08868 25.27797 45.3532 26.21419 45.61852 27.1504 45.88695 28.08662 46.15532 29.02284 46.42531 29.95906 46.69835 30.8953 46.97182 31.83151 47.24722 32.76775 47.52376 33.70395 47.80225 34.64017 48.08269 35.57639 48.36424 36.51262 48.64816 37.44884 48.93286 38.38506 49.2195 39.32127 49.50803 40.25749 49.79816 41.19371 50.09016 42.12993 50.38338 43.06618 50.68005 44.00238 50.97716 44.9386 51.2758 45.87482 51.57597 46.81104 51.87811 47.74725 52.18289 48.68349 52.48851 49.6197 52.79642 50.55592 53.10551 51.49216 53.41615 52.42838 53.72952 53.3646 54.04442 54.30083 54.36125 55.23703 54.67998 56.17325 55.00032 57.10947 55.32219 58.04568 55.64676 58.9819 55.97406 59.91812 56.30214 60.85435 56.63216 61.79059 56.96407 62.7268 57.29758 63.66302 57.63374 64.59924 57.97186 65.53546 58.31194 66.47166 58.65318 67.4079 58.9975 68.34412 59.343 69.28033 59.69083 70.21655 60.03981 71.15279 60.39265 72.089 60.74591 73.02524 61.10187 73.96146 61.46014 74.89767 61.82112 75.8339 62.18213 76.7701 62.54814 77.70631 62.91457 78.64253 63.2833 79.57878 63.65434 80.515 64.02733 81.45122 64.40387 82.38744 64.77992 83.32365 65.1603 84.25987 65.54138 85.1961 65.92642 86.13232 66.31294 87.06854 66.70226 88.00475 67.09267 88.94096 67.48616 89.8772 67.88126 90.81343 68.27866 91.74965 68.67877 92.68587 69.08273 93.62209 69.48709 94.55835 69.89418 95.4945 70.30437 96.43079 70.71646 97.36691 71.13129 98.3032 71.54808 99.23946 71.96753 100.1756 72.38898 101.11186 72.81386 102.048 73.23991 102.9843 73.66945 103.92056 74.1013 104.8567 74.53513 105.79298 74.97282 106.72913 75.41165 107.66539 75.85397 108.60168 76.29941 109.5378 76.74716 110.47408 77.19646 111.41023 77.64769 112.3465 78.10431 113.28278 78.56216 114.21892 79.02072 115.1552 79.48514 116.09132 79.95187 117.0276 80.41978 117.96388 80.88998 118.90002 81.36563 119.83629 81.84204 120.77242 82.32272 121.70871 82.80376 122.64497 83.28986 123.58112 83.77707 124.5174 84.26904 125.45354 84.76248 126.38982 85.26135 127.3261 85.75903 128.26224 86.26183 129.1985 86.76997 130.13466 87.27623 131.07093 87.78983 132.00719 88.30377 132.94332 88.8193 133.87961 89.34224 134.81574 89.86664 135.75202 90.39265 136.68831 90.92212 137.62444 91.45546 138.56072 91.99117 139.49684 92.53027 140.43314 93.0733 141.3694 93.61946 142.30554 94.16792 143.2418 94.71867 144.17795 95.27454 145.11425 95.83456 146.0505 96.39386 146.98665 96.9594 147.92292 97.52954 148.85906 98.10123 149.79534 98.67328 150.73162 99.2543 151.66774 99.83371 152.60404 100.4209 153.54016 101.0089 154.47644 101.6015 155.41272 102.19719 156.34885 102.79599 157.28513 103.39713 158.22127 104.00407 159.15755 104.61295 160.09381 105.22647 161.02997 105.84384 161.96625 106.4663 162.90238 107.08794 163.83867 107.71617 164.77492 108.3491 165.71106 108.98195 166.64733 109.62337 167.58347 110.26633 168.51975 110.91125 169.45603 111.56273 170.39215 112.21614 171.32845 112.87341 172.26459 113.53458 173.20085 114.20042 174.13715 114.86974 175.07326 115.54367 176.00954 116.22108 176.94568 116.90242 177.88196 117.58722 178.81822 118.27664 179.75438 118.9692 180.69066 119.66829 181.62679 120.36627 182.56308 121.07118 183.49935 121.78543 184.43549 122.49847 185.37175 123.2162 186.30789 123.93817 187.24416 124.66595 188.18044 125.39456 189.11658 126.1316 190.05286 126.87025 190.989 127.61316 191.92528 128.36144 192.86156 129.11328 193.79769 129.87201 194.73397 130.6304 195.67012 131.39694 196.60639 132.16768 197.54265 132.9435 198.47879 133.72129 199.41507 134.50679 200.3512 135.29573 201.28748 136.08823 202.22376 136.88881 203.1599 137.68946 204.09616 138.49549 205.0323 139.30687 205.9686 140.12378 206.90486 140.948 207.841 141.77147 208.77727 142.60385 209.71341 143.44043 210.64969 144.28293 211.58597 145.12569 212.5221 145.97357 213.45838 146.8319 214.39453 147.69176 215.3308 148.55623 216.26708 149.43045 217.2032 150.30387 218.1395 151.1866 219.0756 152.0724 220.01189 152.964 220.94817 153.86264 221.88431 154.76276 222.82059 155.66796 223.75673 156.58362 224.69301 157.49886 225.62928 158.42337 226.56543 159.35179 227.5017 160.28488 228.43784 161.22844 229.37413 162.17116 230.31038 163.12128 231.24652 164.07718 232.18279 165.04047 233.11893 166.00843"/>
</g>
<use data-text="t" xlink:href="#font_4_2" transform="matrix(8.7277159,0,0,-8.7277159,174.82894,150.8478)"/>
<use data-text="(" xlink:href="#font_2_85" transform="matrix(8.7277159,0,0,-8.7277159,180.88764,150.8478)"/>
<use data-text="y" xlink:href="#font_2_118" transform="matrix(8.7277159,0,0,-8.7277159,184.28272,150.8478)"/>
<use data-text="e" xlink:href="#font_2_50" transform="matrix(8.7277159,0,0,-8.7277159,188.64656,150.8478)"/>
<use data-text="a" xlink:href="#font_2_28" transform="matrix(8.7277159,0,0,-8.7277159,192.52167,150.8478)"/>
<use data-text="r" xlink:href="#font_2_96" transform="matrix(8.7277159,0,0,-8.7277159,196.88553,150.8478)"/>
<use data-text="s" xlink:href="#font_2_98" transform="matrix(8.7277159,0,0,-8.7277159,200.3068,150.8478)"/>
<use data-text=")" xlink:href="#font_2_86" transform="matrix(8.7277159,0,0,-8.7277159,203.74552,150.8478)"/>
<use data-text="B" xlink:href="#font_4_1" transform="matrix(8.7277159,0,0,-8.7277159,26.77114,10.773605)"/>
<use data-text="(" xlink:href="#font_2_85" transform="matrix(8.7277159,0,0,-8.7277159,36.735635,10.773605)"/>
<use data-text="d" xlink:href="#font_2_47" transform="matrix(8.7277159,0,0,-8.7277159,40.130716,10.773605)"/>
<use data-text="o" xlink:href="#font_2_81" transform="matrix(8.7277159,0,0,-8.7277159,44.983324,10.773605)"/>
<use data-text="l" xlink:href="#font_2_72" transform="matrix(8.7277159,0,0,-8.7277159,49.347185,10.773605)"/>
<use data-text="l" xlink:href="#font_2_72" transform="matrix(8.7277159,0,0,-8.7277159,51.773485,10.773605)"/>
<use data-text="a" xlink:href="#font_2_28" transform="matrix(8.7277159,0,0,-8.7277159,54.19979,10.773605)"/>
<use data-text="r" xlink:href="#font_2_96" transform="matrix(8.7277159,0,0,-8.7277159,58.563653,10.773605)"/>
<use data-text="s" xlink:href="#font_2_98" transform="matrix(8.7277159,0,0,-8.7277159,61.984918,10.773605)"/>
<use data-text=")" xlink:href="#font_2_86" transform="matrix(8.7277159,0,0,-8.7277159,65.42364,10.773605)"/>
</svg>
